<svg width="22" height="22" viewBox="0 0 22 22" fill="none" xmlns="http://www.w3.org/2000/svg">
<path d="M1.18005 1H2.92005C4.00005 1 4.85005 1.93 4.76005 3L3.93005 12.96C3.89765 13.3459 3.94574 13.7342 4.07129 14.1005C4.19684 14.4669 4.3971 14.8031 4.65939 15.0879C4.92169 15.3728 5.24029 15.6001 5.59501 15.7553C5.94973 15.9106 6.33283 15.9905 6.72005 15.99H17.3701C18.8101 15.99 20.0701 14.81 20.1801 13.38L20.7201 5.88C20.8401 4.22 19.5801 2.87 17.9101 2.87H5.00005M8.18005 7H20.1801M15.4301 21C15.7616 21 16.0795 20.8683 16.3139 20.6339C16.5484 20.3995 16.6801 20.0815 16.6801 19.75C16.6801 19.4185 16.5484 19.1005 16.3139 18.8661C16.0795 18.6317 15.7616 18.5 15.4301 18.5C15.0985 18.5 14.7806 18.6317 14.5462 18.8661C14.3117 19.1005 14.1801 19.4185 14.1801 19.75C14.1801 20.0815 14.3117 20.3995 14.5462 20.6339C14.7806 20.8683 15.0985 21 15.4301 21ZM7.43005 21C7.76157 21 8.07952 20.8683 8.31394 20.6339C8.54836 20.3995 8.68005 20.0815 8.68005 19.75C8.68005 19.4185 8.54836 19.1005 8.31394 18.8661C8.07952 18.6317 7.76157 18.5 7.43005 18.5C7.09853 18.5 6.78059 18.6317 6.54617 18.8661C6.31175 19.1005 6.18005 19.4185 6.18005 19.75C6.18005 20.0815 6.31175 20.3995 6.54617 20.6339C6.78059 20.8683 7.09853 21 7.43005 21Z" stroke="#CA8B3B" stroke-width="1.5" stroke-miterlimit="10" stroke-linecap="round" stroke-linejoin="round"/>
</svg>
