<svg width="19" height="22" viewBox="0 0 19 22" fill="none" xmlns="http://www.w3.org/2000/svg">
<path d="M18.18 21C18.18 17.13 14.33 14 9.59 14C4.85 14 1 17.13 1 21M9.59 11C10.9161 11 12.1879 10.4732 13.1255 9.53553C14.0632 8.59785 14.59 7.32608 14.59 6C14.59 4.67392 14.0632 3.40215 13.1255 2.46447C12.1879 1.52678 10.9161 1 9.59 1C8.26392 1 6.99215 1.52678 6.05447 2.46447C5.11678 3.40215 4.59 4.67392 4.59 6C4.59 7.32608 5.11678 8.59785 6.05447 9.53553C6.99215 10.4732 8.26392 11 9.59 11Z" stroke="#CA8B3B" stroke-width="1.5" stroke-linecap="round" stroke-linejoin="round"/>
</svg>
